{
  "accessors": [
    {
      "bufferView": 2,
      "componentType": 5126,
      "count": 564,
      "max": [
        10.154959678649902,
        24.466930389404297,
        33.8965950012207
      ],
      "min": [
        -10.154959678649902,
        -24.466930389404297,
        -33.8965950012207
      ],
      "type": "VEC3"
    },
    {
      "bufferView": 2,
      "byteOffset": 6768,
      "componentType": 5126,
      "count": 564,
      "max": [
        1.0,
        1.0,
        1.0
      ],
      "min": [
        -1.0,
        -1.0,
        -1.0
      ],
      "type": "VEC3"
    },
    {
      "bufferView": 3,
      "componentType": 5126,
      "count": 564,
      "max": [
        1.0,
        1.0,
        1.0,
        1.0
      ],
      "min": [
        -1.0,
        -1.0,
        -1.0,
        -1.0
      ],
      "type": "VEC4"
    },
    {
      "bufferView": 1,
      "componentType": 5126,
      "count": 564,
      "max": [
        0.980112612247467,
        0.998960018157959
      ],
      "min": [
        0.0022102762013673782,
        0.01502692699432373
      ],
      "type": "VEC2"
    },
    {
      "bufferView": 0,
      "componentType": 5125,
      "count": 1164,
      "type": "SCALAR"
    },
    {
      "bufferView": 2,
      "byteOffset": 13536,
      "componentType": 5126,
      "count": 1676,
      "max": [
        3.3119513988494873,
        18.461103439331055,
        18.461105346679688
      ],
      "min": [
        -3.3119513988494873,
        -18.461103439331055,
        -18.461105346679688
      ],
      "type": "VEC3"
    },
    {
      "bufferView": 2,
      "byteOffset": 33648,
      "componentType": 5126,
      "count": 1676,
      "max": [
        1.0,
        1.0,
        1.0
      ],
      "min": [
        -0.993478536605835,
        -1.0,
        -1.0
      ],
      "type": "VEC3"
    },
    {
      "bufferView": 3,
      "byteOffset": 9024,
      "componentType": 5126,
      "count": 1676,
      "max": [
        0.9919589161872864,
        0.9999388456344604,
        0.9997891783714294,
        -1.0
      ],
      "min": [
        -0.9919589757919312,
        -1.0,
        -1.0,
        -1.0
      ],
      "type": "VEC4"
    },
    {
      "bufferView": 1,
      "byteOffset": 4512,
      "componentType": 5126,
      "count": 1676,
      "max": [
        0.9973194599151611,
        0.9984625577926636
      ],
      "min": [
        0.0011953392531722784,
        0.0010399818420410156
      ],
      "type": "VEC2"
    },
    {
      "bufferView": 0,
      "byteOffset": 4656,
      "componentType": 5125,
      "count": 5304,
      "type": "SCALAR"
    },
    {
      "bufferView": 2,
      "byteOffset": 53760,
      "componentType": 5126,
      "count": 594,
      "max": [
        5.7140703201293945,
        22.70742416381836,
        22.707429885864258
      ],
      "min": [
        -5.7140703201293945,
        -22.70742416381836,
        -22.707429885864258
      ],
      "type": "VEC3"
    },
    {
      "bufferView": 2,
      "byteOffset": 60888,
      "componentType": 5126,
      "count": 594,
      "max": [
        1.0,
        0.9951849579811096,
        1.0
      ],
      "min": [
        0.0,
        -1.0,
        -1.0
      ],
      "type": "VEC3"
    },
    {
      "bufferView": 3,
      "byteOffset": 35840,
      "componentType": 5126,
      "count": 594,
      "max": [
        1.0,
        0.9980400204658508,
        0.9987191557884216,
        -1.0
      ],
      "min": [
        -1.0,
        -0.9999983906745911,
        -0.9987284541130066,
        -1.0
      ],
      "type": "VEC4"
    },
    {
      "bufferView": 1,
      "byteOffset": 17920,
      "componentType": 5126,
      "count": 594,
      "max": [
        0.5919163227081299,
        0.7891336679458618
      ],
      "min": [
        0.0807696282863617,
        0.15308380126953125
      ],
      "type": "VEC2"
    },
    {
      "bufferView": 0,
      "byteOffset": 25872,
      "componentType": 5125,
      "count": 1920,
      "type": "SCALAR"
    },
    {
      "bufferView": 2,
      "byteOffset": 68016,
      "componentType": 5126,
      "count": 724,
      "max": [
        2.679685115814209,
        24.02191734313965,
        31.270797729492188
      ],
      "min": [
        -2.679685115814209,
        -24.02191734313965,
        -31.270797729492188
      ],
      "type": "VEC3"
    },
    {
      "bufferView": 2,
      "byteOffset": 76704,
      "componentType": 5126,
      "count": 724,
      "max": [
        1.0,
        1.0,
        1.0
      ],
      "min": [
        -1.4960193084334605e-07,
        -1.0,
        -1.0
      ],
      "type": "VEC3"
    },
    {
      "bufferView": 3,
      "byteOffset": 45344,
      "componentType": 5126,
      "count": 724,
      "max": [
        1.0,
        1.0,
        1.0,
        -1.0
      ],
      "min": [
        -1.0,
        -1.0,
        -1.0,
        -1.0
      ],
      "type": "VEC4"
    },
    {
      "bufferView": 1,
      "byteOffset": 22672,
      "componentType": 5126,
      "count": 724,
      "max": [
        0.9798309803009033,
        0.9979149103164673
      ],
      "min": [
        0.0010399535531178117,
        0.030671238899230957
      ],
      "type": "VEC2"
    },
    {
      "bufferView": 0,
      "byteOffset": 33552,
      "componentType": 5125,
      "count": 1320,
      "type": "SCALAR"
    }
  ],
  "asset": {
    "extras": {
      "author": "Mehdi Shahsavan (https://sketchfab.com/ahmagh2e)",
      "license": "CC-BY-4.0 (http://creativecommons.org/licenses/by/4.0/)",
      "source": "https://sketchfab.com/3d-models/ventilator-14mb-e691ef81c8a74ceabc49d701f1234672",
      "title": "Ventilator - 14MB"
    },
    "generator": "Sketchfab-16.16.0",
    "version": "2.0"
  },
  "bufferViews": [
    {
      "buffer": 0,
      "byteLength": 38832,
      "name": "floatBufferViews",
      "target": 34963
    },
    {
      "buffer": 0,
      "byteLength": 28464,
      "byteOffset": 38832,
      "byteStride": 8,
      "name": "floatBufferViews",
      "target": 34962
    },
    {
      "buffer": 0,
      "byteLength": 85392,
      "byteOffset": 67296,
      "byteStride": 12,
      "name": "floatBufferViews",
      "target": 34962
    },
    {
      "buffer": 0,
      "byteLength": 56928,
      "byteOffset": 152688,
      "byteStride": 16,
      "name": "floatBufferViews",
      "target": 34962
    }
  ],
  "buffers": [
    {
      "byteLength": 209616,
      "uri": "scene.bin"
    }
  ],
  "images": [
    {
      "uri": "textures/material_baseColor.png"
    },
    {
      "uri": "textures/material_metallicRoughness.png"
    },
    {
      "uri": "textures/material_normal.png"
    }
  ],
  "materials": [
    {
      "doubleSided": true,
      "name": "material",
      "normalTexture": {
        "index": 2
      },
      "pbrMetallicRoughness": {
        "baseColorTexture": {
          "index": 0
        },
        "metallicRoughnessTexture": {
          "index": 1
        }
      }
    }
  ],
  "meshes": [
    {
      "name": "Object_36_fan_0",
      "primitives": [
        {
          "attributes": {
            "NORMAL": 1,
            "POSITION": 0,
            "TANGENT": 2,
            "TEXCOORD_0": 3
          },
          "indices": 4,
          "material": 0,
          "mode": 4
        }
      ]
    },
    {
      "name": "FanSupport_36_fan_0",
      "primitives": [
        {
          "attributes": {
            "NORMAL": 6,
            "POSITION": 5,
            "TANGENT": 7,
            "TEXCOORD_0": 8
          },
          "indices": 9,
          "material": 0,
          "mode": 4
        }
      ]
    },
    {
      "name": "Vend_AirDuct_38_fan_0",
      "primitives": [
        {
          "attributes": {
            "NORMAL": 11,
            "POSITION": 10,
            "TANGENT": 12,
            "TEXCOORD_0": 13
          },
          "indices": 14,
          "material": 0,
          "mode": 4
        }
      ]
    },
    {
      "name": "Vent_Cover_Frame_43_fan_0",
      "primitives": [
        {
          "attributes": {
            "NORMAL": 16,
            "POSITION": 15,
            "TANGENT": 17,
            "TEXCOORD_0": 18
          },
          "indices": 19,
          "material": 0,
          "mode": 4
        }
      ]
    }
  ],
  "nodes": [
    {
      "children": [
        1
      ],
      "matrix": [
        1.0,
        0.0,
        0.0,
        0.0,
        0.0,
        2.220446049250313e-16,
        -1.0,
        0.0,
        0.0,
        1.0,
        2.220446049250313e-16,
        0.0,
        0.0,
        0.0,
        0.0,
        1.0
      ],
      "name": "Sketchfab_model"
    },
    {
      "children": [
        2
      ],
      "matrix": [
        0.009999999776482582,
        0.0,
        0.0,
        0.0,
        0.0,
        0.0,
        0.009999999776482582,
        0.0,
        0.0,
        -0.009999999776482582,
        0.0,
        0.0,
        0.0,
        0.0,
        0.0,
        1.0
      ],
      "name": "09076546c389428a8d77976b9b1fe9f3.fbx"
    },
    {
      "children": [
        3,
        5,
        7,
        9,
        11
      ],
      "name": "RootNode"
    },
    {
      "children": [
        4
      ],
      "matrix": [
        -0.6328963464812127,
        -0.10137899803242278,
        -0.7675705266414772,
        0.0,
        -0.06449468198655767,
        0.9948478771942684,
        -0.07821852234292576,
        0.0,
        0.7715456244488625,
        -1.5959455978986625e-16,
        -0.6361739930190597,
        0.0,
        93.98320007324219,
        14.909152030944824,
        82.11883544921875,
        1.0
      ],
      "name": "CINEMA_4D_Editor"
    },
    {
      "name": "Object_4"
    },
    {
      "children": [
        6
      ],
      "matrix": [
        1.0,
        0.0,
        0.0,
        0.0,
        0.0,
        1.0,
        0.0,
        0.0,
        0.0,
        0.0,
        1.0,
        0.0,
        3.7425105571746826,
        0.0,
        0.0,
        1.0
      ],
      "name": "Object_36"
    },
    {
      "mesh": 0,
      "name": "Object_36_fan_0"
    },
    {
      "children": [
        8
      ],
      "matrix": [
        1.0,
        0.0,
        0.0,
        0.0,
        0.0,
        1.0,
        0.0,
        0.0,
        0.0,
        0.0,
        1.0,
        0.0,
        3.652365207672119,
        0.0,
        0.0,
        1.0
      ],
      "name": "FanSupport_36"
    },
    {
      "mesh": 1,
      "name": "FanSupport_36_fan_0"
    },
    {
      "children": [
        10
      ],
      "matrix": [
        1.0,
        0.0,
        0.0,
        0.0,
        0.0,
        1.0,
        0.0,
        0.0,
        0.0,
        0.0,
        1.0,
        0.0,
        3.7425105571746826,
        0.0,
        0.0,
        1.0
      ],
      "name": "Vend_AirDuct_38"
    },
    {
      "mesh": 2,
      "name": "Vend_AirDuct_38_fan_0"
    },
    {
      "children": [
        12
      ],
      "matrix": [
        1.0,
        0.0,
        0.0,
        0.0,
        0.0,
        1.0,
        0.0,
        0.0,
        0.0,
        0.0,
        1.0,
        0.0,
        11.280420303344727,
        0.0,
        0.0,
        1.0
      ],
      "name": "Vent_Cover_Frame_43"
    },
    {
      "mesh": 3,
      "name": "Vent_Cover_Frame_43_fan_0"
    }
  ],
  "samplers": [
    {
      "magFilter": 9729,
      "minFilter": 9987,
      "wrapS": 10497,
      "wrapT": 10497
    }
  ],
  "scene": 0,
  "scenes": [
    {
      "name": "Sketchfab_Scene",
      "nodes": [
        0
      ]
    }
  ],
  "textures": [
    {
      "sampler": 0,
      "source": 0
    },
    {
      "sampler": 0,
      "source": 1
    },
    {
      "sampler": 0,
      "source": 2
    }
  ]
}
